Coordinates
version=1
nRows=10
nColumns=40
inDegrees=yes

Units are S.I. units (second, meters, Newtons, ...)
Angles are in degrees.

endheader
time	pelvis_tilt	pelvis_list	pelvis_rotation	pelvis_tx	pelvis_ty	pelvis_tz	hip_flexion_r	hip_adduction_r	hip_rotation_r	knee_angle_r	knee_angle_r_beta	ankle_angle_r	subtalar_angle_r	mtp_angle_r	hip_flexion_l	hip_adduction_l	hip_rotation_l	knee_angle_l	knee_angle_l_beta	ankle_angle_l	subtalar_angle_l	mtp_angle_l	lumbar_extension	lumbar_bending	lumbar_rotation	arm_flex_r	arm_add_r	arm_rot_r	elbow_flex_r	pro_sup_r	wrist_flex_r	wrist_dev_r	arm_flex_l	arm_add_l	arm_rot_l	elbow_flex_l	pro_sup_l	wrist_flex_l	wrist_dev_l
      4.00750000	     -3.40762431	      0.01747148	     -3.56100973	      1.01480686	      0.92572950	      0.47696590	     23.04002005	     -3.38037961	    -14.15766121	     21.60483885	     21.60483885	      5.81791708	      4.73621119	     -3.02138591	      3.14932118	     -5.27654825	     -8.55588510	     38.92634902	     38.92634902	     11.11827156	    -15.78756533	     -3.73386340	    -13.90355418	      0.31563313	      3.05832043	    -11.56850264	    -13.91369590	     -4.04537940	     27.28046903	     46.60086982	      0.00000000	      0.00000000	      3.90344659	    -13.85891978	    -10.20151668	    108.48559027	     48.83356003	      0.00000000	      0.00000000
      4.01942857	     -3.77238969	     -0.93053406	     -2.81730864	      1.01366835	      0.92615143	      0.47853226	     22.38208142	     -2.47396490	    -15.30913418	     20.96207689	     20.96207689	      6.25049774	      5.08824281	     -3.08879848	      6.19041167	     -7.03514144	     -7.80505997	     43.76698436	     43.76698436	      9.95521025	    -16.81440006	     -3.59268428	    -13.77910466	      1.60528131	      3.01348443	     -9.89173039	    -13.77357591	     -4.05891753	     27.86617593	     46.58936201	      0.00000000	      0.00000000	      2.74211749	    -13.11485333	     -9.38431490	    107.14018358	     48.74896406	      0.00000000	      0.00000000
      4.03135714	     -4.46679559	     -2.19359280	     -1.79831780	      1.01161957	      0.92563784	      0.47968895	     22.04967412	     -1.26053271	    -16.72896019	     20.12457815	     20.12457815	      6.50799599	      5.29372681	     -3.04308570	     10.10565141	     -9.05112220	     -6.51198713	     49.01190667	     49.01190667	     10.63198936	    -16.75119385	      0.40866403	    -13.16846269	      3.31916723	      2.98189893	     -8.23996672	    -13.71410926	     -3.99262071	     28.19375069	     46.56611180	      0.00000000	      0.00000000	      2.25263606	    -12.59594745	     -8.20023329	    103.28190188	     48.60532417	      0.00000000	      0.00000000
      4.04328571	     -5.15602062	     -3.56068368	     -0.76176744	      1.00935273	      0.92467831	      0.48069519	     21.84901569	      0.05231432	    -18.10086816	     19.40882764	     19.40882764	      6.80061692	      5.33422025	     -2.97006700	     14.10100024	    -11.02666833	     -5.04314411	     53.77732469	     53.77732469	     11.28862034	    -16.67112355	      4.02889151	    -12.61043430	      5.10433614	      2.98159507	     -6.65657351	    -13.75908613	     -3.96904282	     29.06010358	     46.51331144	      0.00000000	      0.00000000	      1.50341522	    -12.02001700	     -6.87241414	    100.66483233	     48.48168564	      0.00000000	      0.00000000
      4.05521429	     -5.69856883	     -4.78366731	      0.14469275	      1.00730765	      0.92398186	      0.48177019	     21.54259201	      1.26250369	    -19.31436575	     18.69400094	     18.69400094	      7.02058015	      5.41540652	     -2.91994306	     17.70943773	    -12.71084365	     -3.67669813	     57.56073801	     57.56073801	     11.19133182	    -16.84220899	      5.35378060	    -12.14071125	      6.69993171	      2.80085749	     -4.78160688	    -13.82195297	     -3.86488088	     29.81603596	     46.47246335	      0.00000000	      0.00000000	      0.59884676	    -11.50976827	     -5.94992821	     97.66031073	     48.36565053	      0.00000000	      0.00000000
      4.06714286	     -6.02702954	     -5.71953939	      0.83912758	      1.00570841	      0.92373209	      0.48295731	     21.05148981	      2.25864884	    -20.19261949	     18.01945500	     18.01945500	      7.27888657	      5.54153508	     -2.91114583	     20.84410278	    -13.97639631	     -2.54919901	     60.54519113	     60.54519113	     11.02509711	    -17.08981330	      6.20335062	    -11.85384379	      7.92321034	      2.61323763	     -2.68254107	    -13.85759303	     -3.74912685	     30.54762059	     46.44118304	      0.00000000	      0.00000000	     -0.40055734	    -11.05682730	     -5.06128302	     94.38692833	     48.24241487	      0.00000000	      0.00000000
      4.07907143	     -6.29117654	     -6.33466105	      1.31920517	      1.00457025	      0.92379939	      0.48431098	     20.50350086	      2.99979435	    -20.80212744	     17.38828979	     17.38828979	      7.55625948	      5.72248974	     -2.93511967	     23.62786275	    -14.85702917	     -1.72310955	     62.77805877	     62.77805877	     10.88771885	    -17.33057001	      6.70067613	    -11.60944762	      8.70655780	      2.62251269	     -0.60086670	    -13.81637678	     -3.64436582	     31.22740351	     46.41693963	      0.00000000	      0.00000000	     -1.47207452	    -10.67065071	     -4.31736650	     91.22573908	     48.12862085	      0.00000000	      0.00000000
      4.09100000	     -6.24181577	     -6.55566325	      1.59834629	      1.00398475	      0.92465179	      0.48563995	     19.63386903	      3.38884649	    -21.05922228	     16.86574550	     16.86574550	      7.86844248	      5.99848383	     -3.08838850	     25.72841670	    -15.28553117	     -1.25707642	     64.28957084	     64.28957084	     11.17150035	    -17.41338263	      8.04742150	    -11.62967860	      9.10689954	      3.23761367	      1.48748344	    -13.88334210	     -3.29810624	     31.35163123	     46.39276255	      0.00000000	      0.00000000	     -1.62674074	     -9.91551900	     -3.44000332	     85.92745060	     47.97925441	      0.00000000	      0.00000000
      4.10292857	     -6.14946135	     -6.55788032	      1.73278108	      1.00366027	      0.92570608	      0.48707654	     18.70636558	      3.60225611	    -21.12683833	     16.35788261	     16.35788261	      8.18812680	      6.30039557	     -3.24502212	     27.52401658	    -15.50256364	     -1.05157171	     65.16735696	     65.16735696	     11.32382652	    -17.50157262	      8.72909119	    -11.74041522	      9.17905795	      3.60925681	      3.73043818	    -13.82694067	     -3.12595932	     31.84727469	     46.36703461	      0.00000000	      0.00000000	     -2.27161627	     -9.49586359	     -2.66435886	     81.39131679	     47.84792702	      0.00000000	      0.00000000
      4.11485714	     -6.02309514	     -6.41028892	      1.78754338	      1.00349954	      0.92685184	      0.48846566	     17.75313832	      3.66755319	    -21.08925156	     15.90379272	     15.90379272	      8.51769133	      6.59429805	     -3.45345629	     29.08535677	    -15.54922140	     -1.01575292	     65.51021380	     65.51021380	     11.44141085	    -17.59237485	      9.14249368	    -11.89052001	      9.07701425	      4.10196499	      5.99309623	    -13.77950178	     -2.96758160	     32.31801191	     46.34178355	      0.00000000	      0.00000000	     -2.71960830	     -9.00114344	     -2.05296171	     76.36178079	     47.72218618	      0.00000000	      0.00000000
